<svg width="253" height="145" viewBox="0 0 253 145" fill="none" xmlns="http://www.w3.org/2000/svg">
<path d="M226.28 42.2862L219.098 62.0197H66.0978L61.9936 73.296H117.994L92.342 143.773H1.34204L7.84043 125.919H81.8404L86.9707 111.823H12.9707L38.2802 42.2862H226.28ZM192.994 73.296L173.84 125.919H206.84L200.342 143.773H113.342L138.994 73.296H192.994ZM114.684 142.833H199.684L205.498 126.859H172.498L191.652 74.2357H139.652L114.684 142.833ZM14.3127 110.884H88.3127L82.4984 126.859H8.4984L2.68406 142.833H91.6841L116.652 74.2357H60.6515L65.4398 61.08H218.44L224.938 43.2259H38.9382L14.3127 110.884ZM218.329 0.939697L207.492 30.7144H153.492L164.329 0.939697H218.329ZM154.834 29.7747H206.834L216.987 1.87939H164.987L154.834 29.7747Z" stroke="white" stroke-width="2"/>
</svg>
